<svg width="18" height="18" fill="none" xmlns="http://www.w3.org/2000/svg"><path d="M13.806 3.114a1.08 1.08 0 1 0 0 2.16 1.08 1.08 0 0 0 0-2.16Zm4.14 2.178a6.832 6.832 0 0 0-.414-2.187 4.445 4.445 0 0 0-1.044-1.593A4.23 4.23 0 0 0 14.895.477a6.57 6.57 0 0 0-2.187-.423C11.754 0 11.448 0 9 0 6.552 0 6.246 0 5.292.054a6.57 6.57 0 0 0-2.187.423 4.302 4.302 0 0 0-1.593 1.035A4.23 4.23 0 0 0 .477 3.105a6.57 6.57 0 0 0-.423 2.187C0 6.246 0 6.552 0 9c0 2.448 0 2.754.054 3.708a6.57 6.57 0 0 0 .423 2.187 4.23 4.23 0 0 0 1.035 1.593c.447.46.992.813 1.593 1.035.7.265 1.44.407 2.187.423C6.246 18 6.552 18 9 18c2.448 0 2.754 0 3.708-.054a6.569 6.569 0 0 0 2.187-.423 4.231 4.231 0 0 0 1.593-1.035 4.365 4.365 0 0 0 1.044-1.593c.257-.701.396-1.44.414-2.187 0-.954.054-1.26.054-3.708 0-2.448 0-2.754-.054-3.708Zm-1.62 7.308a5.05 5.05 0 0 1-.306 1.674 2.754 2.754 0 0 1-.675 1.035 2.87 2.87 0 0 1-1.035.675 5.05 5.05 0 0 1-1.674.306c-.9.045-1.233.054-3.6.054s-2.7 0-3.6-.054a5.156 5.156 0 0 1-1.746-.27 2.943 2.943 0 0 1-.99-.675 2.7 2.7 0 0 1-.666-1.035 4.986 4.986 0 0 1-.36-1.71c0-.9-.054-1.233-.054-3.6s0-2.7.054-3.6c.004-.584.11-1.163.315-1.71A2.7 2.7 0 0 1 2.7 2.7c.273-.31.611-.555.99-.72a5.157 5.157 0 0 1 1.71-.306c.9 0 1.233-.054 3.6-.054s2.7 0 3.6.054c.571.007 1.137.11 1.674.306.409.152.776.399 1.071.72.295.276.525.614.675.99.2.548.304 1.127.306 1.71.045.9.054 1.233.054 3.6s-.009 2.7-.054 3.6ZM9 4.383A4.617 4.617 0 1 0 13.626 9 4.607 4.607 0 0 0 9 4.383Zm0 7.614a2.997 2.997 0 1 1 0-5.994 2.997 2.997 0 0 1 0 5.994Z" fill="#F6F5EF"/></svg>