<svg width="18" height="14" viewBox="0 0 18 14" fill="none" xmlns="http://www.w3.org/2000/svg">
<path fill-rule="evenodd" clip-rule="evenodd" d="M14.15 0.749902C13.3 0.699902 11.55 0.649902 8.90002 0.649902H8.55002C6.00002 0.649902 4.30004 0.699902 3.45004 0.799902C2.30004 0.899902 1.50002 1.1999 1.05002 1.5999C0.650018 1.9499 0.350031 2.5999 0.250031 3.4499C0.200031 3.9999 0.150024 5.1499 0.150024 6.8999V7.1499C0.150024 8.7999 0.200018 9.9499 0.300018 10.4999C0.450018 11.2999 0.700043 11.8999 1.20004 12.2499C1.70004 12.6499 2.55003 12.8999 3.75003 12.9999C4.60003 13.0499 6.35003 13.0999 9.00003 13.0999H9.35004C11.9 13.0999 13.6 13.0499 14.45 12.9499C15.6 12.8499 16.4 12.5499 16.85 12.1499C17.25 11.7999 17.55 11.1499 17.65 10.2999C17.7 9.7499 17.75 8.5999 17.75 6.8499V6.5999C17.75 4.9499 17.7 3.7999 17.6 3.2499C17.45 2.4499 17.2 1.8499 16.7 1.4999C16.2 1.0999 15.35 0.849902 14.15 0.749902ZM12.2 6.8999L6.70004 10.1999V3.5999L12.2 6.8999Z" fill="#F6F5EF"/>
</svg>
